<?xml version="1.0" encoding="UTF-8"?>
<svg viewBox="0 0 26 32" version="1.1" xmlns="http://www.w3.org/2000/svg" xmlns:xlink="http://www.w3.org/1999/xlink">
    <title>Bus Back</title>
    <g id="Page-1" stroke="none" stroke-width="1" fill="none" fill-rule="evenodd">
        <g id="Bus-Back" class="fillcurrent" fill="#000000" fill-rule="nonzero">
            <path d="M0,27.7333333 L7.38461538,27.7333333 C7.72430769,27.7333333 8,27.4166154 8,27.0769231 C8,23.6836923 10.7606154,20.9230769 14.1538462,20.9230769 C17.3833846,20.9230769 20.0769231,23.4486154 20.2867692,26.6738462 C20.2996923,26.8670769 20.4024615,27.0430769 20.5643077,27.1489231 C20.7267692,27.2541538 20.9298462,27.2769231 21.1113846,27.2123077 C23.768,26.2461538 25.2307692,23.9033846 25.2307692,20.6153846 L25.2307692,7.07692308 C25.2307692,2.64553846 22.5852308,0 18.1538462,0 L0,0 L0,27.7333333 Z M0,1.23076923 L18.1538462,1.23076923 C21.8695385,1.23076923 24,3.36123077 24,7.07692308 L24,20.6153846 C24,23.0627692 23.1076923,24.816 21.4086154,25.7347692 C20.7723077,22.2843077 17.7378462,19.6923077 14.1538462,19.6923077 C10.2892308,19.6923077 7.10830769,22.6929347 6.79507692,26.47755 L0,26.47755 L0,1.23076923 Z" id="Shape"></path>
            <path d="M12.9230769,13.0461538 L21.5384615,13.0461538 C21.8781538,13.0461538 22.1538462,12.7704615 22.1538462,12.4307692 L22.1538462,7.50769231 C22.1538462,3.84430769 20.5661538,3.2 17.2307692,3.2 L12.9230769,3.2 C12.5833846,3.2 12.3076923,3.47569231 12.3076923,3.81538462 L12.3076923,12.4307692 C12.3076923,12.7704615 12.5833846,13.0461538 12.9230769,13.0461538 Z M13.5384615,4.43076923 L17.2307692,4.43076923 C20.3710769,4.43076923 20.9230769,4.89107692 20.9230769,7.50769231 L20.9230769,11.8153846 L13.5384615,11.8153846 L13.5384615,4.43076923 Z" id="Shape"></path>
            <path d="M14.1538462,22.1538462 C11.4393846,22.1538462 9.23076923,24.3624615 9.23076923,27.0769231 C9.23076923,29.7913846 11.4393846,32 14.1538462,32 C16.8683077,32 19.0769231,29.7913846 19.0769231,27.0769231 C19.0769231,24.3624615 16.8683077,22.1538462 14.1538462,22.1538462 Z M14.1538462,30.7692308 C12.1175385,30.7692308 10.4615385,29.1132308 10.4615385,27.0769231 C10.4615385,25.0406154 12.1175385,23.3846154 14.1538462,23.3846154 C16.1901538,23.3846154 17.8461538,25.0406154 17.8461538,27.0769231 C17.8461538,29.1132308 16.1901538,30.7692308 14.1538462,30.7692308 Z" id="Shape"></path>
            <path d="M1.23076923,13.0461538 L9.84615385,13.0461538 C10.1858462,13.0461538 10.4615385,12.7704615 10.4615385,12.4307692 L10.4615385,3.81538462 C10.4615385,3.47569231 10.1858462,3.2 9.84615385,3.2 L1.23076923,3.2 C0.891076923,3.2 0.615384615,3.47569231 0.615384615,3.81538462 L0.615384615,12.4307692 C0.615384615,12.7704615 0.891076923,13.0461538 1.23076923,13.0461538 Z M1.84615385,4.43076923 L9.23076923,4.43076923 L9.23076923,11.8153846 L1.84615385,11.8153846 L1.84615385,4.43076923 Z" id="Shape"></path>
        </g>
    </g>
</svg>