<?xml version="1.0" encoding="UTF-8"?>
<svg viewBox="0 0 27 32" version="1.1" xmlns="http://www.w3.org/2000/svg" xmlns:xlink="http://www.w3.org/1999/xlink">
    <title>Bus Front</title>
    <g id="Page-1" stroke="none" stroke-width="1" fill="none" fill-rule="evenodd">
        <g id="Bus-Front" transform="translate(0.161290, 0.000000)" class="fillcurrent" fill="#000000" fill-rule="nonzero">
            <path d="M11.91067,22.471464 C9.28377171,22.471464 7.14640199,24.6088337 7.14640199,27.235732 C7.14640199,29.8626303 9.28377171,32 11.91067,32 C14.5375682,32 16.674938,29.8626303 16.674938,27.235732 C16.674938,24.6088337 14.5375682,22.471464 11.91067,22.471464 Z M11.91067,30.808933 C9.94004963,30.808933 8.33746898,29.2063524 8.33746898,27.235732 C8.33746898,25.2651117 9.94004963,23.662531 11.91067,23.662531 C13.8812903,23.662531 15.483871,25.2651117 15.483871,27.235732 C15.483871,29.2063524 13.8812903,30.808933 11.91067,30.808933 Z" id="Shape"></path>
            <path d="M5.17756824,27.2688172 C5.35325062,27.3319438 5.54977667,27.309909 5.70699752,27.2074773 C5.86421836,27.1050455 5.96367246,26.9347229 5.97558313,26.7477254 C6.17866005,23.6265343 8.78531017,21.1824648 11.91067,21.1824648 C15.1944417,21.1824648 17.866005,23.8540281 17.866005,27.1377998 C17.866005,27.4665343 18.132804,27.7333333 18.4615385,27.7333333 L26.8387097,27.7333333 L26.8387097,0.0160115764 L8.03169402,0.0160115764 C3.7432573,0.0160115764 1.191067,2.56019851 1.19344913,6.79503722 L0,19.9503722 C0,23.2734491 2.78947891,26.4005294 5.17756824,27.2688172 Z M1.27444169,19.057072 L2.67990074,19.057072 C2.84426799,19.057072 2.97766749,19.1904715 2.97766749,19.3548387 C2.97766749,19.519206 2.84426799,19.6526055 2.67990074,19.6526055 L1.22084367,19.6526055 L1.27444169,19.057072 Z M2.67990074,20.8436725 C3.50054591,20.8436725 4.16873449,20.1754839 4.16873449,19.3548387 C4.16873449,18.5341935 3.50054591,17.866005 2.67990074,17.866005 L1.38282878,17.866005 L2.382134,6.84863524 C2.382134,3.25280397 4.44387097,1.23594908 8.03970223,1.23594908 L26.8387097,1.23594908 L26.8387097,26.47755 L19.0320596,26.47755 C18.728933,22.815019 15.6506203,19.9266816 11.91067,19.9266816 C8.43573201,19.9266816 5.49439206,22.4445972 4.88694789,25.7926865 C3.27841191,25.0315947 1.64962779,22.7624814 1.27146402,20.8436725 L2.67990074,20.8436725 Z" id="Shape"></path>
            <path d="M4.14943403,15.6742511 C4.14943403,16.0029856 4.41623304,16.2697846 4.74496753,16.2697846 L7.12710152,16.2697846 C7.45583602,16.2697846 7.72263502,16.0029856 7.72263502,15.6742511 C7.72263502,15.1192139 7.882238,13.5767821 8.58377646,12.6965836 L13.67797,12.6965836 C14.0067045,12.6965836 14.2735035,12.4297846 14.2735035,12.1010501 L14.2735035,3.76358115 C14.2735035,3.43484666 14.0067045,3.16804766 13.67797,3.16804766 L10.104769,3.16804766 C8.25682857,3.16804766 6.82337944,3.67127346 5.84253577,4.6640278 C4.07737448,6.4506283 4.11370202,9.43425113 4.14288316,11.831869 C4.14586083,12.1284447 4.14943403,12.417874 4.14943403,12.6965836 L4.14943403,15.6742511 Z M6.68997994,5.50075237 C7.44928515,4.73251416 8.56591046,4.35911465 10.104769,4.35911465 L13.0824365,4.35911465 L13.0824365,11.5055166 L8.31816852,11.5055166 C8.16035214,11.5055166 8.0084911,11.5680477 7.89712634,11.680008 C6.92997994,12.6471544 6.64769706,14.222936 6.56551343,15.0787176 L5.34050103,15.0787176 L5.34050103,12.6965836 C5.34050103,12.4131097 5.33692783,12.1189161 5.33335463,11.8169807 C5.30536455,9.52834542 5.27439681,6.93360597 6.68997994,5.50075237 Z" id="Shape"></path>
            <path d="M16.6556375,12.6965836 L24.9931065,12.6965836 C25.321841,12.6965836 25.58864,12.4297846 25.58864,12.1010501 L25.58864,3.76358115 C25.58864,3.43484666 25.321841,3.16804766 24.9931065,3.16804766 L16.6556375,3.16804766 C16.326903,3.16804766 16.060104,3.43484666 16.060104,3.76358115 L16.060104,12.1010501 C16.060104,12.4297846 16.326903,12.6965836 16.6556375,12.6965836 Z M17.251171,4.35911465 L24.397573,4.35911465 L24.397573,11.5055166 L17.251171,11.5055166 L17.251171,4.35911465 Z" id="Shape"></path>
            <path d="M10.9980693,13.8876506 C10.1774241,13.8876506 9.50923552,14.5558392 9.50923552,15.3764844 C9.50923552,16.1971295 10.1774241,16.8653181 10.9980693,16.8653181 L13.3802033,16.8653181 C14.2008484,16.8653181 14.869037,16.1971295 14.869037,15.3764844 C14.869037,14.5558392 14.2008484,13.8876506 13.3802033,13.8876506 L10.9980693,13.8876506 Z M13.67797,15.3764844 C13.67797,15.5408516 13.5445705,15.6742511 13.3802033,15.6742511 L10.9980693,15.6742511 C10.833702,15.6742511 10.7003025,15.5408516 10.7003025,15.3764844 C10.7003025,15.2121171 10.833702,15.0787176 10.9980693,15.0787176 L13.3802033,15.0787176 C13.5445705,15.0787176 13.67797,15.2121171 13.67797,15.3764844 Z" id="Shape"></path>
        </g>
    </g>
</svg>