<?xml version="1.0" encoding="UTF-8"?>
<svg viewBox="0 0 19 32" version="1.1" xmlns="http://www.w3.org/2000/svg" xmlns:xlink="http://www.w3.org/1999/xlink">
    <title>Bus Middle</title>
    <g id="Page-1" stroke="none" stroke-width="1" fill="none" fill-rule="evenodd">
        <g id="Bus-Middle" transform="translate(0.000000, 0.000000)">
            <path d="M0,27.7333333 L19,27.7333333 L19,0.0160115764 L0,0.0160115764 L0,27.7333333 Z M0,1.23594908 L19,1.23594908 L19,26.47755 L0,26.47755 L0,1.23594908 Z" id="Shape" class="fillcurrent" fill="#000000" fill-rule="nonzero"></path>
            <path d="M0.947357732,13.0875926 L7.57886186,13.0875926 C7.84033259,13.0875926 8.05254073,12.81074 8.05254073,12.4696181 L8.05254073,3.81797454 C8.05254073,3.47685259 7.84033259,3.2 7.57886186,3.2 L0.947357732,3.2 C0.685886998,3.2 0.473678866,3.47685259 0.473678866,3.81797454 L0.473678866,12.4696181 C0.473678866,12.81074 0.685886998,13.0875926 0.947357732,13.0875926 Z M1.4210366,4.43594908 L7.10518299,4.43594908 L7.10518299,11.8516435 L1.4210366,11.8516435 L1.4210366,4.43594908 Z" id="Shape" class="fillcurrent" fill="#000000" fill-rule="nonzero"></path>
            <path d="M9.94725619,13.0875926 L16.5787603,13.0875926 C16.8402311,13.0875926 17.0524392,12.81074 17.0524392,12.4696181 L17.0524392,3.81797454 C17.0524392,3.47685259 16.8402311,3.2 16.5787603,3.2 L9.94725619,3.2 C9.68578546,3.2 9.47357732,3.47685259 9.47357732,3.81797454 L9.47357732,12.4696181 C9.47357732,12.81074 9.68578546,13.0875926 9.94725619,13.0875926 Z M10.4209351,4.43594908 L16.1050815,4.43594908 L16.1050815,11.8516435 L10.4209351,11.8516435 L10.4209351,4.43594908 Z" id="Shape" class="fillcurrent" fill="#000000" fill-rule="nonzero"></path>
            <rect id="Rectangle" fill-opacity="0.01" fill="#FFFFFF" x="0" y="27.7493449" width="17.9997969" height="4.25065509"></rect>
        </g>
    </g>
</svg>